<svg width="112" height="24" viewBox="0 0 112 24" fill="none" xmlns="http://www.w3.org/2000/svg">
<g clip-path="url(#clip0_32_77)">
<path d="M17.981 0H6C2.70476 0 0 2.70476 0 6.01905V18C0 21.2952 2.70476 24 6 24H17.981C21.2952 24 24 21.2952 24 17.981V6.01905C24 2.70476 21.2952 0 17.981 0ZM15.219 12H12.9524V19.4286H10.0952V12H8.57143V8.95238H9.90476V7.65714C9.90476 6.4381 10.5143 4.51429 13.0857 4.51429H15.4286V7.04762H13.7714C13.5048 7.04762 13.1429 7.21905 13.1429 7.80952V8.95238H15.4857L15.219 12Z" fill="#F30050"/>
</g>
<g clip-path="url(#clip1_32_77)">
<path d="M61.9667 0.00952148H50.0143C46.7026 0.00952148 44 2.71214 44 6.0238V17.9952C44 21.2879 46.7026 23.9905 50.0143 23.9905H61.9857C65.2974 23.9905 68 21.2879 68 17.9762V6.0238C67.981 2.71214 65.2784 0.00952148 61.9667 0.00952148ZM51.9937 19.4227H48.5678V9.52578H51.9937V19.4227ZM50.2617 8.00318C49.291 8.00318 48.5107 7.22284 48.5107 6.25219C48.5107 5.28153 49.291 4.50119 50.2617 4.50119C51.2324 4.50119 52.0127 5.28153 52.0127 6.25219C51.9937 7.22284 51.2133 8.00318 50.2617 8.00318ZM63.4322 19.4227H63.4132H60.5583V14.6265C60.5583 13.4655 60.406 11.981 58.8263 11.981C57.2086 11.981 56.9421 13.2371 56.9421 14.5504V19.4227H54.0872V9.52578H56.7518V10.8581H56.8279C57.2466 10.0968 58.2173 9.50675 59.7399 9.50675C62.8803 9.50675 63.4322 11.3148 63.4322 13.9984V19.4227Z" fill="#F30050"/>
</g>
<g clip-path="url(#clip2_32_77)">
<path d="M105.967 0.00952148H94.0143C90.7026 0.00952148 88 2.71214 88 6.0238V17.9952C88 21.2879 90.7026 23.9905 94.0143 23.9905H105.986C109.297 23.9905 112 21.2879 112 17.9762V6.0238C111.981 2.71214 109.278 0.00952148 105.967 0.00952148ZM105.948 8.99287C105.948 9.1261 105.948 9.25932 105.948 9.39255C105.948 13.3894 102.864 17.9952 97.2117 17.9952C95.4798 17.9952 93.862 17.5004 92.5107 16.6439C92.7581 16.663 92.9865 16.682 93.2339 16.682C94.6804 16.682 95.9937 16.2062 97.0404 15.3878C95.6891 15.3688 94.5662 14.4933 94.1665 13.2942C94.3569 13.3323 94.5472 13.3513 94.7375 13.3513C95.023 13.3513 95.3085 13.3132 95.5559 13.2371C94.1856 12.9516 93.1388 11.7336 93.1388 10.268V10.23C93.5194 10.4584 94.0143 10.5916 94.5091 10.6106C93.6907 10.0777 93.1388 9.14513 93.1388 8.09834C93.1388 7.5464 93.291 7.03252 93.5575 6.57574C95.0801 8.40286 97.3259 9.60191 99.8763 9.73514C99.8192 9.50675 99.8002 9.27836 99.8002 9.04997C99.8002 7.3751 101.17 6.0238 102.864 6.0238C103.74 6.0238 104.539 6.38541 105.11 6.97542C105.814 6.84219 106.462 6.59477 107.052 6.23315C106.823 6.93736 106.328 7.52736 105.7 7.90801C106.328 7.83188 106.918 7.67962 107.47 7.4322C107.052 8.04124 106.538 8.57415 105.948 8.99287Z" fill="#F30050"/>
</g>
<defs>
<clipPath id="clip0_32_77">
<rect width="24" height="24" fill="white"/>
</clipPath>
<clipPath id="clip1_32_77">
<rect width="24" height="24" fill="white" transform="translate(44)"/>
</clipPath>
<clipPath id="clip2_32_77">
<rect width="24" height="24" fill="white" transform="translate(88)"/>
</clipPath>
</defs>
</svg>
